PathFileType	4	(X/Y/Z)	SUBJ26_3_walk_RCNL2025.trc
DataRate	CameraRate	NumFrames	NumMarkers	Units	OrigDataRate	OrigDataStartFrame	OrigNumFrames
100	100	4	25	mm	100	95	379
Frame#	Time	R_Shoulder			L_Shoulder			C7			J_Notch			R_Elbow			L_Elbow			R_Wrist			L_Wrist			R_Asis			L_Asis			Sacral			Thoracic			Sternum			R_Thigh_Lateral			R_Knee_Lateral			R_Shank_Lateral			R_Ankle_Lateral			R_Heel			R_Toe			L_Thigh_Lateral			L_Knee_Lateral			L_Shank_Lateral			L_Ankle_Lateral			L_Heel			L_Toe		
		X1	Y1	Z1	X2	Y2	Z2	X3	Y3	Z3	X4	Y4	Z4	X5	Y5	Z5	X6	Y6	Z6	X7	Y7	Z7	X8	Y8	Z8	X9	Y9	Z9	X10	Y10	Z10	X11	Y11	Z11	X12	Y12	Z12	X13	Y13	Z13	X14	Y14	Z14	X15	Y15	Z15	X16	Y16	Z16	X17	Y17	Z17	X18	Y18	Z18	X19	Y19	Z19	X20	Y20	Z20	X21	Y21	Z21	X22	Y22	Z22	X23	Y23	Z23	X24	Y24	Z24	X25	Y25	Z25
95	0.94000000	-1389.540771	1313.801514	340.021057	-1404.211426	1325.577271	6.651264	-1478.134766	1382.468994	187.851959	-1334.535522	1279.258179	168.058334	-1461.789551	999.471558	442.931030	-1476.686890	1007.113831	-97.388214	-1373.907776	763.476196	413.338226	-1380.152466	779.000824	-102.518799	-1363.631226	912.525574	294.601044	-1401.597168	911.615723	-7.464863	-1586.804443	927.463684	171.586929	-1563.649902	1039.597778	168.574585	-1302.325806	1021.240723	164.399353	-1456.517822	579.337341	336.084015	-1462.099854	430.150604	261.839020	-1488.299194	278.966522	296.711731	-1520.520996	47.650589	221.288467	-1572.483521	35.343845	160.737640	-1398.981567	37.790745	200.536591	-1395.105835	603.705444	-57.343025	-1342.635498	451.951141	11.681069	-1428.533569	301.323883	-55.939312	-1503.529663	105.874863	33.310524	-1561.911621	106.160118	92.322174	-1398.054321	50.038795	59.866928
96	0.95000000	-1375.900024	1312.563599	339.747345	-1392.508545	1324.924805	6.499010	-1465.413818	1381.537476	188.424072	-1322.132324	1278.149536	167.539612	-1445.788086	998.623291	444.288391	-1469.628540	1006.777527	-96.956856	-1355.811096	763.532410	414.749115	-1375.878479	777.548828	-103.167618	-1352.211304	911.578125	295.906464	-1388.414551	911.017212	-6.428922	-1574.702148	926.394836	170.732147	-1551.455566	1038.693481	168.768616	-1289.966187	1020.371338	163.771240	-1447.497192	578.840393	336.188934	-1459.145752	430.189667	261.481567	-1486.871338	279.146729	296.512756	-1520.468750	47.783951	221.089508	-1572.419312	35.606773	160.556549	-1398.897461	37.722603	200.442139	-1377.188354	604.303589	-57.261444	-1321.389771	453.165192	12.332928	-1401.332886	298.702881	-55.095871	-1464.472412	98.803963	33.475483	-1522.122070	95.325256	93.214767	-1355.765015	48.948322	58.132145
97	0.96000000	-1362.352173	1311.116577	339.429840	-1380.737427	1324.069092	6.356454	-1452.719849	1380.397705	188.931030	-1309.764648	1276.903442	166.992828	-1429.853760	997.577209	445.506317	-1462.498535	1006.312500	-96.510712	-1337.799500	763.386444	416.158264	-1371.500854	776.026550	-103.849380	-1340.750122	910.434937	297.090668	-1375.274536	910.138367	-5.416824	-1562.517456	925.180725	169.955231	-1539.205322	1037.592407	168.885468	-1277.510864	1019.403320	163.052292	-1438.836548	578.231079	336.188263	-1456.249512	430.308075	261.125946	-1485.576050	279.445618	296.317322	-1520.432495	47.969486	220.856827	-1572.353760	35.942066	160.316727	-1398.827393	37.657928	200.356857	-1359.697632	604.672974	-57.113495	-1300.768066	454.049530	13.014241	-1374.108887	295.826019	-54.289459	-1424.749023	92.041725	33.503696	-1481.503174	84.869751	93.877998	-1313.157837	48.312084	56.537914
98	0.97000000	-1348.889160	1309.487793	339.074860	-1368.933228	1323.005737	6.202833	-1440.045166	1379.058838	189.359970	-1297.412231	1275.529785	166.427124	-1414.014648	996.357666	446.586212	-1455.244385	1005.723633	-96.053970	-1319.893738	763.052032	417.563248	-1366.994568	774.425385	-104.563046	-1329.183472	909.119019	298.105560	-1362.185181	908.994446	-4.473564	-1550.236450	923.832458	169.286545	-1526.891235	1036.308350	168.935287	-1264.958496	1018.321594	162.257660	-1430.636475	577.563049	336.085663	-1453.369873	430.502228	260.765625	-1484.371216	279.873047	296.105499	-1520.406860	48.225796	220.564117	-1572.274292	36.386452	159.985123	-1398.766235	37.597263	200.278442	-1342.662476	604.765686	-56.876583	-1280.796143	454.552979	13.700101	-1346.761597	292.683472	-53.591068	-1384.407104	85.722763	33.378101	-1440.186157	74.980354	94.244385	-1270.319702	48.204609	55.173233
